<?xml version="1.0" standalone="no"?><!DOCTYPE svg PUBLIC "-//W3C//DTD SVG 1.1//EN" "http://www.w3.org/Graphics/SVG/1.1/DTD/svg11.dtd"><svg t="1658768043384" class="icon" viewBox="0 0 1024 1024" version="1.1" xmlns="http://www.w3.org/2000/svg" p-id="1615" width="64" height="64" xmlns:xlink="http://www.w3.org/1999/xlink"><defs><style type="text/css">@font-face { font-family: feedback-iconfont; src: url("//at.alicdn.com/t/font_1031158_u69w8yhxdu.woff2?t=1630033759944") format("woff2"), url("//at.alicdn.com/t/font_1031158_u69w8yhxdu.woff?t=1630033759944") format("woff"), url("//at.alicdn.com/t/font_1031158_u69w8yhxdu.ttf?t=1630033759944") format("truetype"); }
</style></defs><path d="M731.733333 256m-85.333333 0a85.333333 85.333333 0 1 0 170.666667 0 85.333333 85.333333 0 1 0-170.666667 0Z" fill="#FF354A" p-id="1616"></path><path d="M343.466667 386.133333L140.8 718.933333c-34.133333 57.6 6.4 130.133333 72.533333 130.133334h407.466667c66.133333 0 106.666667-72.533333 72.533333-130.133334L490.666667 386.133333c-34.133333-53.333333-113.066667-53.333333-147.2 0z" fill="#2953FF" p-id="1617"></path><path d="M631.466667 548.266667l-106.666667 174.933333C490.666667 780.8 531.2 853.333333 597.333333 853.333333h213.333334c66.133333 0 106.666667-72.533333 72.533333-130.133333l-106.666667-174.933333c-32-55.466667-113.066667-55.466667-145.066666 0z" fill="#FCCA1E" p-id="1618"></path></svg>